<svg version="1.1" id="Layer_1" xmlns="http://www.w3.org/2000/svg" xmlns:xlink="http://www.w3.org/1999/xlink" x="0px" y="0px"
	 width="100%" viewBox="0 0 512 512" enable-background="new 0 0 512 512" xml:space="preserve">
<path fill="#FFFFFF" opacity="1.000000" stroke="none" 
	d="
M202.000000,513.000000 
	C135.028702,513.000000 68.057396,513.000000 1.043046,513.000000 
	C1.043046,342.435150 1.043046,171.870270 1.043046,1.000000 
	C101.021805,1.000000 201.043930,1.000000 301.380737,1.397562 
	C299.537476,1.869732 297.296478,1.591160 295.234833,2.075655 
	C280.702698,5.490736 266.342163,9.263699 253.340988,17.145941 
	C236.119125,27.587082 223.351944,41.954285 214.632355,59.911907 
	C205.470810,78.779701 202.554443,99.123215 202.087692,119.806740 
	C201.670700,138.285248 202.000000,156.780579 202.000000,175.268494 
	C202.000000,179.388367 202.000000,183.508224 202.000000,188.176208 
	C175.747986,188.176208 149.899582,188.176208 124.351547,188.176208 
	C124.351547,219.129929 124.351547,249.521835 124.351547,280.292725 
	C150.431137,280.292725 176.159943,280.292725 202.000000,280.292725 
	C202.000000,358.117737 202.000000,435.558868 202.000000,513.000000 
z"/>
<path fill="#FFFFFF" opacity="1.000000" stroke="none" 
	d="
M359.000000,1.000002 
	C410.307861,1.000000 461.615723,1.000000 512.961792,1.000000 
	C512.961792,171.556534 512.961792,342.113068 512.961792,513.000000 
	C441.312775,513.000000 369.625061,513.000000 297.468658,512.531372 
	C297.000000,434.819427 297.000000,357.576172 297.000000,279.950287 
	C323.530243,279.950287 349.603241,279.950287 375.482239,279.950287 
	C379.445953,249.147629 383.358063,218.746033 387.333160,187.854736 
	C356.718109,187.854736 326.985168,187.854736 298.000793,187.854736 
	C298.000793,164.082932 297.240021,140.673080 298.296997,117.345596 
	C298.894623,104.155807 305.770416,93.318886 319.721954,89.911125 
	C328.487610,87.770050 337.617279,86.587379 346.639984,86.157616 
	C359.604706,85.540070 372.620789,86.007286 385.614929,85.989616 
	C387.040680,85.987671 388.466217,85.842384 389.708252,85.773727 
	C389.708252,58.254829 389.708252,31.168840 389.708252,3.814682 
	C379.602600,3.177013 369.770172,2.565179 359.941437,1.899487 
	C359.608826,1.876960 359.312988,1.312083 359.000000,1.000002 
z"/>
<path fill="#010002" opacity="1.000000" stroke="none" 
	d="
M358.531342,1.000002 
	C359.312988,1.312083 359.608826,1.876960 359.941437,1.899487 
	C369.770172,2.565179 379.602600,3.177013 389.708252,3.814682 
	C389.708252,31.168840 389.708252,58.254829 389.708252,85.773727 
	C388.466217,85.842384 387.040680,85.987671 385.614929,85.989616 
	C372.620789,86.007286 359.604706,85.540070 346.639984,86.157616 
	C337.617279,86.587379 328.487610,87.770050 319.721954,89.911125 
	C305.770416,93.318886 298.894623,104.155807 298.296997,117.345596 
	C297.240021,140.673080 298.000793,164.082932 298.000793,187.854736 
	C326.985168,187.854736 356.718109,187.854736 387.333160,187.854736 
	C383.358063,218.746033 379.445953,249.147629 375.482239,279.950287 
	C349.603241,279.950287 323.530243,279.950287 297.000000,279.950287 
	C297.000000,357.576172 297.000000,434.819427 297.000000,512.531372 
	C265.645782,513.000000 234.291550,513.000000 202.468658,513.000000 
	C202.000000,435.558868 202.000000,358.117737 202.000000,280.292725 
	C176.159943,280.292725 150.431137,280.292725 124.351547,280.292725 
	C124.351547,249.521835 124.351547,219.129929 124.351547,188.176208 
	C149.899582,188.176208 175.747986,188.176208 202.000000,188.176208 
	C202.000000,183.508224 202.000000,179.388367 202.000000,175.268494 
	C202.000000,156.780579 201.670700,138.285248 202.087692,119.806740 
	C202.554443,99.123215 205.470810,78.779701 214.632355,59.911907 
	C223.351944,41.954285 236.119125,27.587082 253.340988,17.145941 
	C266.342163,9.263699 280.702698,5.490736 295.234833,2.075655 
	C297.296478,1.591160 299.537476,1.869732 301.847717,1.397562 
	C320.687561,1.000000 339.375122,1.000000 358.531342,1.000002 
z"/>
</svg>